<svg version="1.0" xmlns="http://www.w3.org/2000/svg" width="1024.000000pt" height="1024.000000pt" viewBox="0 0 1024.000000 1024.000000" preserveAspectRatio="xMidYMid meet">
		<g transform="translate(0.000000,1024.000000) scale(0.100000,-0.100000)" fill="inherit" stroke="inherit">
			<path
				d="M4855 10234 c-337 -25 -503 -47 -760 -99 -1314 -266 -2483 -1051
    -3230 -2170 -480 -720 -761 -1515 -847 -2400 -16 -169 -16 -721 0 -890 125
    -1283 678 -2420 1599 -3287 1160 -1091 2776 -1581 4348 -1317 1773 298 3258
    1501 3918 3174 523 1326 468 2797 -152 4100 -213 446 -532 910 -879 1278 -870
    921 -2005 1475 -3272 1597 -115 11 -631 21 -725 14z m2235 -6850 c0 -3 -9 -41
    -20 -85 -101 -395 -351 -748 -690 -974 -246 -164 -509 -259 -865 -312 -184
    -27 -620 -24 -810 5 -317 50 -582 145 -805 290 -294 190 -519 467 -650 798
    -27 67 -80 250 -80 275 0 5 821 9 1960 9 1078 0 1960 -3 1960 -6z"
			/>
		</g>
	</svg>
