<svg version="1.0" xmlns="http://www.w3.org/2000/svg" width="1200.000000pt" height="1200.000000pt" viewBox="0 0 1200.000000 1200.000000" preserveAspectRatio="xMidYMid meet">
		<g transform="translate(0.000000,1200.000000) scale(0.100000,-0.100000)" fill="inherit" stroke="inherit">
			<path
				d="M7680 8474 c-394 -42 -678 -215 -874 -533 -44 -71 -45 -73 -51 -45
        -33 149 -82 247 -172 344 -69 75 -154 133 -248 171 l-60 24 -557 3 -558 3 0
        -1091 0 -1090 519 0 c510 0 520 0 597 23 116 33 207 88 295 177 88 89 150 201
        174 313 7 38 16 71 18 73 2 3 21 -25 42 -60 54 -93 167 -220 265 -299 105 -85
        269 -167 405 -204 91 -25 116 -27 275 -27 147 -1 189 3 261 21 248 63 471 211
        628 418 71 94 155 268 188 390 25 92 27 115 27 285 0 168 -3 194 -27 282 -110
        412 -435 717 -852 802 -75 15 -237 26 -295 20z m-1579 -547 c18 -12 44 -38 57
        -57 21 -30 23 -45 20 -106 -3 -59 -8 -77 -31 -107 -48 -63 -66 -68 -254 -65
        l-168 3 -3 165 c-1 90 0 170 2 177 4 10 46 13 174 13 159 0 171 -1 203 -23z
        m1794 -22 c156 -41 289 -147 357 -286 46 -92 60 -152 61 -254 0 -149 -55 -280
        -167 -391 -104 -104 -245 -164 -386 -164 -241 0 -462 170 -534 410 -22 72 -22
        227 0 300 53 183 209 334 397 385 70 19 199 18 272 0z m-1250 -550 l0 -134
        -30 28 c-43 39 -105 86 -139 103 l-30 15 45 20 c31 15 154 96 154 103 0 0 0
        -61 0 -135z m-529 -257 c46 -40 64 -82 64 -148 0 -65 -18 -108 -63 -147 -44
        -38 -90 -45 -267 -41 l-125 3 -3 170 c-1 93 0 175 2 182 4 10 47 13 180 13
        l175 0 37 -32z"
			/>
			<path
				d="M7625 7782 c-209 -72 -333 -273 -297 -482 33 -190 174 -330 367 -363
        180 -31 367 68 452 240 34 68 38 85 41 172 3 79 0 107 -17 156 -46 131 -152
        236 -278 275 -82 25 -198 26 -268 2z"
			/>
			<path
				d="M3450 7350 l0 -1090 305 0 305 0 0 420 0 420 190 0 190 0 0 -420 0
        -420 300 0 300 0 -2 1088 -3 1087 -295 0 -295 0 -5 -405 -5 -405 -185 0 -185
        0 -5 405 -5 405 -302 3 -303 2 0 -1090z"
			/>
			<path
				d="M2970 6108 c-87 -12 -246 -67 -315 -109 -79 -47 -157 -114 -211 -179
        -56 -69 -127 -210 -156 -315 -22 -79 -23 -89 -26 -815 -2 -509 0 -746 8 -772
        14 -49 53 -94 104 -120 33 -17 64 -22 157 -26 76 -3 123 0 137 7 l22 12 0 732
        c0 403 4 759 9 792 16 110 48 173 120 245 49 49 82 72 126 89 75 29 219 39
        296 21 157 -37 274 -151 308 -301 7 -27 11 -298 11 -711 0 -431 4 -685 11
        -716 12 -57 61 -121 111 -145 40 -19 255 -31 292 -17 l25 9 3 778 c3 703 5
        783 20 828 43 124 123 211 238 257 47 19 74 23 180 23 120 0 128 -1 192 -32
        119 -56 190 -141 223 -268 13 -50 15 -160 15 -735 0 -407 4 -689 10 -709 13
        -47 47 -93 88 -122 33 -22 46 -24 183 -27 148 -3 148 -3 154 20 3 13 4 379 2
        813 -4 866 -2 839 -66 998 -94 237 -290 405 -549 474 -128 34 -352 38 -476 10
        -150 -36 -281 -101 -380 -188 l-52 -47 -49 43 c-189 167 -478 244 -765 203z"
			/>
			<path
				d="M6260 6105 c-545 -103 -866 -577 -836 -1235 24 -558 284 -931 741
        -1066 77 -22 115 -27 255 -31 139 -4 180 -2 260 15 122 25 239 71 326 126 69
        45 84 48 84 19 0 -54 84 -137 157 -154 59 -13 236 -11 256 4 16 11 17 89 15
        1152 l-3 1140 -125 3 c-69 2 -139 0 -156 -3 -39 -7 -117 -74 -134 -115 -7 -16
        -16 -30 -21 -30 -5 0 -36 18 -69 39 -74 48 -185 95 -288 122 -102 27 -353 35
        -462 14z m355 -445 c122 -31 221 -95 301 -194 184 -225 216 -639 73 -934 -75
        -155 -223 -274 -389 -313 -75 -18 -221 -15 -300 6 -102 26 -177 71 -260 155
        -85 85 -137 178 -172 308 -18 64 -21 107 -22 252 0 204 15 278 86 419 125 250
        404 372 683 301z"
			/>
			<path
				d="M7634 6066 c-3 -7 74 -134 172 -282 405 -614 484 -735 501 -766 23
        -44 22 -132 -2 -178 -10 -19 -82 -132 -160 -250 -448 -678 -516 -784 -511
        -796 8 -22 399 -20 452 2 78 32 106 65 310 375 112 169 213 315 226 323 33 23
        100 20 132 -5 15 -12 118 -159 230 -328 264 -399 241 -384 556 -379 188 3 195
        4 194 23 0 11 -135 223 -299 470 -420 634 -380 566 -380 655 l0 76 100 152
        c55 84 165 251 245 372 319 482 342 520 336 535 -4 13 -36 15 -204 15 -309 0
        -284 17 -549 -382 -111 -168 -215 -316 -230 -328 -22 -18 -37 -21 -75 -17 -26
        2 -54 10 -62 17 -9 6 -96 134 -193 282 -219 332 -244 365 -312 400 l-53 28
        -209 0 c-169 0 -211 -3 -215 -14z"
			/>
		</g>
	</svg>
