	<svg width="64" height="64" viewBox="0 0 64 24" fill="none" xmlns="http://www.w3.org/2000/svg">
		<path d="M31.84 18.926c0 0.07 0.061 0.127 0.137 0.127h3.259c0.076 0 0.137 -0.057 0.137 -0.127V4.256c0 -0.07 -0.061 -0.127 -0.137 -0.127h-3.259c-0.076 0 -0.137 0.057 -0.137 0.127v14.67Zm-23.956 0c0 0.07 0.061 0.127 0.137 0.127h3.258c0.076 0 0.137 -0.057 0.137 -0.127V9.691c0 -0.07 -0.061 -0.127 -0.137 -0.127H8.021c-0.076 0 -0.137 0.057 -0.137 0.127v9.235Zm14.226 -3.089c-2.361 0.429 -4.635 -1.19 -5.071 -3.61 -0.436 -2.42 1.131 -4.737 3.491 -5.166 2.361 -0.429 4.635 1.19 5.071 3.61 0.436 2.42 -1.131 4.737 -3.491 5.166Zm7.579 0.694 -1.612 -1.3a0.181 0.181 0 0 1 -0.063 -0.103 0.177 0.177 0 0 1 0.017 -0.12c0.771 -1.456 1.079 -3.171 0.764 -4.918 -0.745 -4.137 -4.695 -6.882 -8.823 -6.132 -4.128 0.75 -6.871 4.712 -6.126 8.849 0.745 4.137 4.695 6.882 8.823 6.132a7.562 7.562 0 0 0 3.076 -1.306 0.179 0.179 0 0 1 0.217 0.005l1.729 1.395c0.059 0.047 0.145 0.036 0.194 -0.024l1.823 -2.282c0.048 -0.061 0.04 -0.148 -0.019 -0.195ZM56.282 4.129H53.024c-0.076 0 -0.137 0.057 -0.137 0.127v14.67c0 0.07 0.061 0.127 0.137 0.127h3.259c0.076 0 0.137 -0.057 0.137 -0.127V4.256c0 -0.07 -0.061 -0.127 -0.137 -0.127ZM9.65 3.837c-1.143 0 -2.069 0.931 -2.069 2.079 0 1.148 0.926 2.079 2.069 2.079s2.069 -0.931 2.069 -2.079 -0.926 -2.079 -2.069 -2.079Zm41.512 0.293H47.69c-0.06 0 -0.115 0.031 -0.143 0.08l-3.226 5.765s-0.018 0.033 -0.044 0.041l-0.012 0.002c-0.024 -0.001 -0.043 -0.025 -0.051 -0.037l-0.004 -0.007 -3.226 -5.765c-0.028 -0.049 -0.083 -0.08 -0.143 -0.08h-3.472c-0.093 0 -0.2 0.096 -0.123 0.24l5.161 8.726c0.049 0.084 0.075 0.18 0.075 0.278v5.527c0 0.084 0.068 0.152 0.151 0.152h3.265c0.084 0 0.151 -0.068 0.151 -0.152v-5.527c0 -0.098 0.026 -0.194 0.075 -0.278l5.161 -8.726c0.076 -0.144 -0.03 -0.24 -0.123 -0.24Z" fill="currentColor" />
	</svg>
