<svg version="1.0" xmlns="http://www.w3.org/2000/svg" width="1200.000000pt" height="628.000000pt" viewBox="0 0 1200.000000 628.000000" preserveAspectRatio="xMidYMid meet">
		<g transform="translate(0.000000,628.000000) scale(0.100000,-0.100000)" fill="inherit" stroke="inherit">
			<path
				d="M2605 4441 c-199 -32 -414 -131 -642 -295 -51 -36 -94 -66 -98 -66
        -3 0 -5 68 -5 150 l0 150 -320 0 -320 0 0 -1240 0 -1240 340 0 340 0 0 769 0
        770 83 64 c113 89 240 172 317 210 126 60 252 46 313 -35 54 -72 52 -41 55
        -940 l3 -838 339 0 340 0 0 773 0 773 103 75 c231 171 324 221 425 227 71 5
        136 -15 170 -51 12 -12 31 -45 44 -72 l23 -50 3 -837 3 -838 340 0 340 0 -3
        998 c-3 997 -3 997 -26 1077 -66 236 -205 387 -417 451 -94 29 -291 25 -415
        -8 -174 -47 -360 -141 -550 -278 l-83 -60 -39 68 c-108 186 -286 289 -513 297
        -55 2 -122 0 -150 -4z"
			/>
			<path
				d="M6042 4439 c-314 -40 -609 -210 -807 -464 -191 -244 -285 -520 -285
        -835 0 -315 94 -591 285 -835 304 -389 813 -561 1272 -430 175 51 299 123 434
        252 47 46 89 83 93 83 3 0 6 -70 6 -155 l0 -155 325 0 325 0 0 1240 0 1240
        -325 0 -325 0 0 -155 c0 -85 -3 -155 -6 -155 -4 0 -46 37 -93 83 -47 45 -112
        99 -143 120 -209 138 -494 200 -756 166z m477 -603 c122 -43 199 -91 293 -186
        72 -72 94 -103 132 -181 58 -121 79 -207 78 -334 -1 -200 -69 -362 -212 -506
        -144 -145 -283 -207 -485 -216 -142 -6 -243 14 -360 72 -182 90 -327 267 -383
        467 -23 87 -23 289 0 376 71 255 272 454 528 522 110 29 304 23 409 -14z"
			/>
			<path
				d="M6220 3704 c-60 -8 -162 -45 -221 -80 -74 -45 -169 -146 -207 -223
        -85 -171 -80 -389 15 -550 38 -66 129 -158 193 -195 94 -56 182 -80 290 -80
        124 0 212 26 315 95 274 184 330 566 121 830 -55 70 -175 152 -261 178 -66 21
        -183 32 -245 25z"
			/>
			<path
				d="M7816 4368 c21 -36 117 -177 193 -283 199 -279 418 -546 683 -834
        l87 -94 -62 -70 c-230 -257 -573 -697 -793 -1017 -55 -80 -104 -151 -108 -157
        -6 -10 78 -13 406 -12 l413 0 85 132 c144 222 354 494 514 662 l66 70 45 -50
        c153 -167 362 -445 516 -683 l84 -131 418 -1 418 0 -53 78 c-252 374 -542 754
        -800 1047 l-115 131 94 104 c141 156 366 427 488 585 95 123 159 212 342 473
        l44 62 -409 0 -409 0 -48 -72 c-62 -95 -255 -351 -340 -453 -126 -151 -267
        -305 -279 -304 -13 1 -157 158 -286 314 -120 144 -226 286 -308 412 l-67 102
        -413 0 c-328 1 -412 -2 -406 -11z"
			/>
		</g>
	</svg>
