<svg version="1.0" xmlns="http://www.w3.org/2000/svg" width="866.000000pt" height="650.000000pt" viewBox="0 0 866.000000 650.000000" preserveAspectRatio="xMidYMid meet">
		<g transform="translate(0.000000,650.000000) scale(0.100000,-0.100000)" fill="inherit" stroke="none">
			<path
				d="M1552 3603 c3 -836 4 -838 26 -911 86 -281 287 -489 560 -583 94 -32
    102 -33 257 -34 172 0 236 11 345 61 57 26 70 38 70 67 0 20 -163 309 -185
    327 -13 10 -29 9 -88 -9 -89 -26 -176 -27 -256 -2 -122 38 -210 115 -265 230
    l-31 66 -3 258 c-2 189 0 262 9 273 9 11 62 14 300 14 276 0 290 1 309 20 19
    19 20 33 20 198 0 138 -3 183 -14 198 -14 18 -31 19 -309 22 -220 2 -298 6
    -306 15 -6 8 -11 124 -13 303 -2 228 -6 295 -17 307 -12 15 -40 17 -213 17
    l-199 0 3 -837z"
			/>
			<path
				d="M4762 3608 l3 -833 23 -75 c91 -298 300 -510 592 -602 66 -20 95 -23
    235 -23 140 0 169 3 235 23 299 94 514 316 595 618 23 84 30 257 15 351 -55
    345 -312 624 -647 704 -165 40 -378 23 -527 -40 -45 -20 -51 -20 -72 -6 l-24
    15 0 328 c0 280 -2 331 -16 350 -15 21 -20 22 -215 22 l-200 0 3 -832z m1034
    -288 c193 -94 288 -312 226 -517 -85 -278 -419 -392 -655 -223 -205 147 -237
    450 -68 641 46 52 134 107 199 126 28 7 85 12 138 10 80 -2 99 -7 160 -37z"
			/>
			<path
				d="M6799 4417 c-68 -36 -103 -93 -107 -176 -5 -81 16 -132 75 -180 83
    -69 193 -67 273 5 52 47 74 106 68 184 -8 113 -93 190 -208 190 -40 0 -70 -7
    -101 -23z"
			/>
			<path
				d="M2837 3794 c-11 -11 -8 -909 3 -989 39 -275 222 -525 475 -652 114
    -58 187 -75 340 -80 122 -5 153 -2 230 17 295 71 525 290 626 595 23 69 24 77
    27 575 l3 505 -22 17 c-18 16 -45 18 -210 18 l-189 0 0 -442 c0 -481 -4 -528
    -55 -628 -34 -67 -117 -150 -181 -183 -246 -123 -539 10 -610 278 -11 38 -14
    155 -14 491 0 364 -2 444 -14 460 -13 17 -30 19 -208 22 -106 2 -197 0 -201
    -4z"
			/>
			<path
				d="M6690 2947 c0 -650 3 -856 12 -865 17 -17 379 -17 396 0 9 9 12 211
    12 849 l0 838 -22 15 c-18 13 -56 16 -210 16 l-188 0 0 -853z"
			/>
		</g>
	</svg>
