	<svg xmlns="http://www.w3.org/2000/svg" width="32" height="32" viewBox="0 0 32 32">
		<path d="M14.688 1.063c.051.137.051.137.063.313-.1.12-.195.211-.313.313-2.623 2.403-3.399 6.643-3.558 10.035l-.005.151c.298-.23.511-.472.731-.777a192.803 192.803 0 0 1 .198-.27l.1-.136c.664-.895 1.385-1.749 2.107-2.597a34.419 34.419 0 0 0 .513-.619c.29-.357.592-.703.894-1.05.196-.225.389-.45.583-.677 1.066-1.246 1.066-1.246 1.516-1.734a13.047 13.047 0 0 0 .566-.66c.231-.285.471-.558.719-.828l.104-.115c.318-.343.318-.343.532-.412.172.023.172.023.313.063.026.458-.035.824-.188 1.254l-.066.191c-.967 2.748-2.151 5.416-3.377 8.056l-.168.364a140.169 140.169 0 0 1-1.296 2.728c-3.325 6.757-3.325 6.757-4.469 14.105.008.526.008.526-.063.738-.129.055-.129.055-.313.063-.394-.234-.609-.616-.828-1.004l-.106-.184a57.134 57.134 0 0 1-.314-.561l-.092-.164C6.734 24.526 5.805 21.018 5.313 17.5l-.029-.204a170.208 170.208 0 0 1-.159-1.171c-1.055 1-1.288 3.479-1.325 4.857-.026 2.066.4 3.989 1.506 5.753.194.31.194.31.194.515-.328-.058-.514-.278-.75-.5l-.133-.123c-.42-.402-.769-.852-1.117-1.314l-.08-.106C1.781 23.04.865 20.487.5 17.813l-.02-.144c-.062-.525-.058-1.055-.058-1.583v-.155c.001-.864.05-1.704.203-2.556l.03-.175A15.106 15.106 0 0 1 4.25 5.813l.09-.1a39.192 39.192 0 0 1 .598-.65l.116-.124c.31-.323.66-.597 1.009-.876l.168-.138c.746-.612.746-.612 1.082-.612-.06.407-.427.696-.718.959C5.133 5.64 4.344 7.75 4.008 9.68l-.025.143c-.036.225-.047.396.017.615l.113-.218c.707-1.362 1.46-2.666 2.45-3.845l.08-.097c.674-.815 1.396-1.564 2.232-2.215l.204-.165c1.346-1.086 3.81-2.965 5.609-2.835Zm7.136 1.433c.343.096.431.272.613.566l.122.191c.441.704.816 1.444 1.191 2.185l.071.139c1.525 3.006 2.302 6.457 2.663 9.79.02.171.048.339.078.508.279-.225.372-.505.492-.832l.065-.175c.969-2.674 1.125-5.669-.057-8.305a17.232 17.232 0 0 0-.802-1.499c-.072-.126-.072-.126-.072-.251.299.027.463.167.672.367l.099.093c.315.302.586.633.854.977l.119.143c2.224 2.667 3.353 6.17 3.338 9.615v.17c-.003.869-.033 1.718-.207 2.572l-.038.186c-.51 2.433-1.47 4.678-3.025 6.627l-.141.181c-.537.675-1.127 1.335-1.796 1.881l-.173.149c-1.061.914-1.061.914-1.515.914.092-.321.287-.487.523-.707 1.597-1.551 2.808-4.002 2.856-6.261l-.004-.157c-.128.163-.23.321-.318.508l-.073.151-.077.161a16.423 16.423 0 0 1-2.65 3.847 13.02 13.02 0 0 0-.326.379c-1.107 1.264-2.544 2.252-3.993 3.079l-.119.069c-2.093 1.198-2.093 1.198-2.986 1.185l-.153-.002-.117-.002c-.02-.138-.02-.138 0-.313.136-.144.136-.144.324-.297 1.357-1.178 2.083-2.9 2.613-4.578l.054-.169c.52-1.667.928-3.644.884-5.394-.236.093-.334.219-.477.426-.508.72-1.06 1.404-1.618 2.085a122.464 122.464 0 0 0-.246.302 61.131 61.131 0 0 1-.842 1.01 36.164 36.164 0 0 0-.528.638c-.29.356-.591.703-.893 1.049a91.109 91.109 0 0 0-.599.697 31.123 31.123 0 0 1-.652.742 13.331 13.331 0 0 0-.535.629c-.291.36-.604.695-.92 1.032a17.27 17.27 0 0 0-.798.913c-.142.165-.142.165-.33.29-.195.012-.195.012-.375 0-.063-.063-.063-.063-.078-.309.005-.338.092-.624.203-.941l.066-.192c.949-2.708 2.115-5.338 3.321-7.939.107-.23.212-.46.318-.691.367-.798.745-1.591 1.131-2.381 2.194-4.502 4.342-9.186 4.564-14.262l.006-.144.011-.27c.016-.37.016-.37.281-.375Z" fill="current" />
	</svg>
